{"accessors":[{"bufferView":0,"byteOffset":0,"componentType":5126,"count":59400,"max":[0.5,0.5,0.5],"min":[-0.5,-0.5,-0.5],"normalized":false,"type":"VEC3"},{"bufferView":1,"byteOffset":0,"componentType":5126,"count":59400,"max":[1,0.01564,1,1],"min":[-1,-0.015828,-1,1],"normalized":false,"type":"VEC4"},{"bufferView":2,"byteOffset":0,"componentType":5126,"count":59400,"max":[1,0.999877,1],"min":[-1,-0.999877,-1],"normalized":false,"type":"VEC3"},{"bufferView":3,"byteOffset":0,"componentType":5126,"count":59400,"max":[1,1],"min":[0,0],"normalized":false,"type":"VEC2"},{"bufferView":4,"byteOffset":0,"componentType":5125,"count":59400,"max":[59399],"min":[0],"normalized":false,"type":"SCALAR"}],"asset":{"generator":"Godot Engine v4.1.stable.official@970459615f6b2b4151742ec6d7ef8559f87fd5c5","version":"2.0"},"bufferViews":[{"buffer":0,"byteLength":712800,"byteOffset":0},{"buffer":0,"byteLength":950400,"byteOffset":712800},{"buffer":0,"byteLength":712800,"byteOffset":1663200},{"buffer":0,"byteLength":475200,"byteOffset":2376000},{"buffer":0,"byteLength":237600,"byteOffset":2851200}],"buffers":[{"byteLength":3088800,"uri":"sphere0.bin"}],"cameras":[{"perspective":{"yfov":2.01258277893066,"zfar":4000,"znear":0.0500000007450581},"type":"perspective"}],"materials":[{}],"meshes":[{"extras":{"targetNames":[]},"primitives":[{"attributes":{"NORMAL":2,"POSITION":0,"TANGENT":1,"TEXCOORD_0":3},"indices":4,"material":0,"mode":4}]}],"nodes":[{"children":[1,2],"extensions":{},"name":"Node3D"},{"extensions":{},"mesh":0,"name":"CSGSphere3D2"},{"camera":0,"extensions":{},"name":"Camera3D","translation":[0,0,5]}],"scene":0,"scenes":[{"nodes":[0]}]}